<svg xmlns="http://www.w3.org/2000/svg" id="scopewatchBuild" width="100%" aria-roledescription="flowchart-v2" class="flowchart" style="max-width:1486.82421875px" role="graphics-document document" viewBox="0 0 1486.824 1450.514"><style>#scopewatchBuild{fill:#333}#scopewatchBuild .edge-thickness-normal{stroke-width:1px}#scopewatchBuild .edge-pattern-solid{stroke-dasharray:0}#scopewatchBuild .edge-pattern-dotted{stroke-dasharray:2}#scopewatchBuild .marker{fill:#0b0b0b;stroke:#0b0b0b}#scopewatchBuild .marker.cross{stroke:#0b0b0b}#scopewatchBuild,#scopewatchBuild svg{font-family:Arial,sans-serif;font-size:16px}#scopewatchBuild p{margin:0}#scopewatchBuild .label{font-family:Arial,sans-serif;color:#333}#scopewatchBuild .label text,#scopewatchBuild span{fill:#333;color:#333}#scopewatchBuild .node circle,#scopewatchBuild .node path,#scopewatchBuild .node rect{fill:#fff4dd;stroke:#edb;stroke-width:1px}#scopewatchBuild .node .label text{text-anchor:middle}#scopewatchBuild .node .label{text-align:center}#scopewatchBuild .flowchart-link{stroke:#0b0b0b;fill:none}#scopewatchBuild .edgeLabel{background-color:#fdd;text-align:center}#scopewatchBuild .edgeLabel p{background-color:#fdd}#scopewatchBuild .edgeLabel rect{opacity:.5;background-color:#fdd;fill:#fdd}#scopewatchBuild :root{--mermaid-font-family:Arial,sans-serif}</style><g><marker id="scopewatchBuild_flowchart-v2-pointEnd" class="marker flowchart-v2" markerHeight="8" markerUnits="userSpaceOnUse" markerWidth="8" orient="auto" refX="5" refY="5" viewBox="0 0 10 10"><path d="M 0 0 L 10 5 L 0 10 z" class="arrowMarkerPath" style="stroke-width:1;stroke-dasharray:1,0"/></marker><marker id="scopewatchBuild_flowchart-v2-pointStart" class="marker flowchart-v2" markerHeight="8" markerUnits="userSpaceOnUse" markerWidth="8" orient="auto" refX="4.5" refY="5" viewBox="0 0 10 10"><path d="M 0 5 L 10 10 L 10 0 z" class="arrowMarkerPath" style="stroke-width:1;stroke-dasharray:1,0"/></marker><marker id="scopewatchBuild_flowchart-v2-circleEnd" class="marker flowchart-v2" markerHeight="11" markerUnits="userSpaceOnUse" markerWidth="11" orient="auto" refX="11" refY="5" viewBox="0 0 10 10"><circle cx="5" cy="5" r="5" class="arrowMarkerPath" style="stroke-width:1;stroke-dasharray:1,0"/></marker><marker id="scopewatchBuild_flowchart-v2-circleStart" class="marker flowchart-v2" markerHeight="11" markerUnits="userSpaceOnUse" markerWidth="11" orient="auto" refX="-1" refY="5" viewBox="0 0 10 10"><circle cx="5" cy="5" r="5" class="arrowMarkerPath" style="stroke-width:1;stroke-dasharray:1,0"/></marker><marker id="scopewatchBuild_flowchart-v2-crossEnd" class="marker cross flowchart-v2" markerHeight="11" markerUnits="userSpaceOnUse" markerWidth="11" orient="auto" refX="12" refY="5.2" viewBox="0 0 11 11"><path d="M 1,1 l 9,9 M 10,1 l -9,9" class="arrowMarkerPath" style="stroke-width:2;stroke-dasharray:1,0"/></marker><marker id="scopewatchBuild_flowchart-v2-crossStart" class="marker cross flowchart-v2" markerHeight="11" markerUnits="userSpaceOnUse" markerWidth="11" orient="auto" refX="-1" refY="5.2" viewBox="0 0 11 11"><path d="M 1,1 l 9,9 M 10,1 l -9,9" class="arrowMarkerPath" style="stroke-width:2;stroke-dasharray:1,0"/></marker><g class="root"><g class="edgePaths"><path id="L_H_N_0" marker-end="url(#scopewatchBuild_flowchart-v2-pointEnd)" d="M550.074,65.068L497.991,72.306C445.908,79.545,341.741,94.023,289.658,108.345C237.574,122.667,237.574,136.833,237.574,143.917L237.574,151" class="edge-thickness-normal edge-pattern-solid flowchart-link" data-edge="true" data-et="edge" data-id="L_H_N_0" data-points="W3sieCI6NTUwLjA3NDIxODc1LCJ5Ijo2NS4wNjc3OTY2MTAxNjk1fSx7IngiOjIzNy41NzQyMTg3NSwieSI6MTA4LjV9LHsieCI6MjM3LjU3NDIxODc1LCJ5IjoxNTV9XQ=="/><path id="L_H_C_0" marker-end="url(#scopewatchBuild_flowchart-v2-pointEnd)" d="M810.074,68.979L849.033,75.566C887.991,82.153,965.908,95.326,1004.866,104.997C1043.824,114.667,1043.824,120.833,1043.824,123.917L1043.824,127" class="edge-thickness-normal edge-pattern-solid flowchart-link" data-edge="true" data-et="edge" data-id="L_H_C_0" data-points="W3sieCI6ODEwLjA3NDIxODc1LCJ5Ijo2OC45NzkzODE0NDMyOTg5Nn0seyJ4IjoxMDQzLjgyNDIxODc1LCJ5IjoxMDguNX0seyJ4IjoxMDQzLjgyNDIxODc1LCJ5IjoxMzF9XQ=="/><path id="L_C_U_0" marker-end="url(#scopewatchBuild_flowchart-v2-pointEnd)" d="M913.824,205.121L856.604,215.298C799.383,225.475,684.941,245.829,641.527,261.299C598.113,276.768,625.726,287.352,639.533,292.644L653.34,297.936" class="edge-thickness-normal edge-pattern-solid flowchart-link" data-edge="true" data-et="edge" data-id="L_C_U_0" data-points="W3sieCI6OTEzLjgyNDIxODc1LCJ5IjoyMDUuMTIxMjkxMzk4MTA2ODJ9LHsieCI6NTcwLjUsInkiOjI2Ni4xODM1OTM3NX0seyJ4Ijo2NTcuMDc0NzE5MzE4MjEyNiwieSI6Mjk5LjM2NzE4NzV9XQ=="/><path id="L_N_J_0" marker-end="url(#scopewatchBuild_flowchart-v2-pointEnd)" d="M222.203,209L216.777,218.531C211.352,228.061,200.5,247.122,213.327,262.067C226.154,277.012,262.66,287.84,280.912,293.255L299.165,298.669" class="edge-thickness-normal edge-pattern-solid flowchart-link" data-edge="true" data-et="edge" data-id="L_N_J_0" data-points="W3sieCI6MjIyLjIwMzA5OTA4MDM3OTEsInkiOjIwOX0seyJ4IjoxODkuNjQ4NDM3NSwieSI6MjY2LjE4MzU5Mzc1fSx7IngiOjMwMywieSI6Mjk5LjgwNjIzODUxMjg3MzZ9XQ=="/><path id="L_C_J_0" marker-end="url(#scopewatchBuild_flowchart-v2-pointEnd)" d="M913.824,206.141L859.937,216.148C806.049,226.155,698.275,246.17,632.926,261.429C567.577,276.689,544.655,287.195,533.193,292.448L521.732,297.701" class="edge-thickness-normal edge-pattern-solid flowchart-link" data-edge="true" data-et="edge" data-id="L_C_J_0" data-points="W3sieCI6OTEzLjgyNDIxODc1LCJ5IjoyMDYuMTQxMzY4ODgwOTIzMDR9LHsieCI6NTkwLjUsInkiOjI2Ni4xODM1OTM3NX0seyJ4Ijo1MTguMDk1NTEzODI2NTA1OCwieSI6Mjk5LjM2NzE4NzV9XQ=="/><path id="L_J_P_0" marker-end="url(#scopewatchBuild_flowchart-v2-pointEnd)" d="M433,377.367L433,381.117C433,384.867,433,392.367,433,399.201C433,406.034,433,412.201,433,415.284L433,418.367" class="edge-thickness-normal edge-pattern-solid flowchart-link" data-edge="true" data-et="edge" data-id="L_J_P_0" data-points="W3sieCI6NDMzLCJ5IjozNzcuMzY3MTg3NX0seyJ4Ijo0MzMsInkiOjM5OS44NjcxODc1fSx7IngiOjQzMywieSI6NDIyLjM2NzE4NzV9XQ=="/><path id="L_P_Q_0" marker-end="url(#scopewatchBuild_flowchart-v2-pointEnd)" d="M433,500.367L433,504.117C433,507.867,433,515.367,433,522.201C433,529.034,433,535.201,433,538.284L433,541.367" class="edge-thickness-normal edge-pattern-solid flowchart-link" data-edge="true" data-et="edge" data-id="L_P_Q_0" data-points="W3sieCI6NDMzLCJ5Ijo1MDAuMzY3MTg3NX0seyJ4Ijo0MzMsInkiOjUyMi44NjcxODc1fSx7IngiOjQzMywieSI6NTQ1LjM2NzE4NzV9XQ=="/><path id="L_Q_I_0" marker-end="url(#scopewatchBuild_flowchart-v2-pointEnd)" d="M352.669,623.367L344.945,627.117C337.221,630.867,321.772,638.367,314.048,645.201C306.324,652.034,306.324,658.201,306.324,661.284L306.324,664.367" class="edge-thickness-normal edge-pattern-solid flowchart-link" data-edge="true" data-et="edge" data-id="L_Q_I_0" data-points="W3sieCI6MzUyLjY2OTAxNjc2ODI5MjcsInkiOjYyMy4zNjcxODc1fSx7IngiOjMwNi4zMjQyMTg3NSwieSI6NjQ1Ljg2NzE4NzV9LHsieCI6MzA2LjMyNDIxODc1LCJ5Ijo2NjguMzY3MTg3NX1d"/><path id="L_I_A_0" marker-end="url(#scopewatchBuild_flowchart-v2-pointEnd)" d="M306.324,746.367L306.324,750.117C306.324,753.867,306.324,761.367,306.324,768.201C306.324,775.034,306.324,781.201,306.324,784.284L306.324,787.367" class="edge-thickness-normal edge-pattern-solid flowchart-link" data-edge="true" data-et="edge" data-id="L_I_A_0" data-points="W3sieCI6MzA2LjMyNDIxODc1LCJ5Ijo3NDYuMzY3MTg3NX0seyJ4IjozMDYuMzI0MjE4NzUsInkiOjc2OC44NjcxODc1fSx7IngiOjMwNi4zMjQyMTg3NSwieSI6NzkxLjM2NzE4NzV9XQ=="/><path id="L_A_V_0" marker-end="url(#scopewatchBuild_flowchart-v2-pointEnd)" d="M306.324,869.367L306.324,873.117C306.324,876.867,306.324,884.367,306.324,891.201C306.324,898.034,306.324,904.201,306.324,907.284L306.324,910.367" class="edge-thickness-normal edge-pattern-solid flowchart-link" data-edge="true" data-et="edge" data-id="L_A_V_0" data-points="W3sieCI6MzA2LjMyNDIxODc1LCJ5Ijo4NjkuMzY3MTg3NX0seyJ4IjozMDYuMzI0MjE4NzUsInkiOjg5MS44NjcxODc1fSx7IngiOjMwNi4zMjQyMTg3NSwieSI6OTE0LjM2NzE4NzV9XQ=="/><path id="L_U_EL_0" marker-end="url(#scopewatchBuild_flowchart-v2-pointEnd)" d="M758.824,377.367L758.824,381.117C758.824,384.867,758.824,392.367,770.105,399.667C781.385,406.967,803.945,414.067,815.226,417.617L826.506,421.166" class="edge-thickness-normal edge-pattern-solid flowchart-link" data-edge="true" data-et="edge" data-id="L_U_EL_0" data-points="W3sieCI6NzU4LjgyNDIxODc1LCJ5IjozNzcuMzY3MTg3NX0seyJ4Ijo3NTguODI0MjE4NzUsInkiOjM5OS44NjcxODc1fSx7IngiOjgzMC4zMjE0NTU3OTI2ODMsInkiOjQyMi4zNjcxODc1fV0="/><path id="L_Q_EN_0" marker-end="url(#scopewatchBuild_flowchart-v2-pointEnd)" d="M539.742,623.367L550.006,627.117C560.27,630.867,580.797,638.367,591.061,652.367C601.324,666.367,601.324,686.867,601.324,707.367C601.324,727.867,601.324,748.367,601.324,768.867C601.324,789.367,601.324,809.867,601.324,830.367C601.324,850.867,601.324,871.367,601.324,891.867C601.324,912.367,601.324,932.867,601.324,955.132C601.324,977.397,601.324,1001.427,585.413,1018.746C569.502,1036.065,537.68,1046.674,521.769,1051.978L505.858,1057.282" class="edge-thickness-normal edge-pattern-solid flowchart-link" data-edge="true" data-et="edge" data-id="L_Q_EN_0" data-points="W3sieCI6NTM5Ljc0MjE4NzUsInkiOjYyMy4zNjcxODc1fSx7IngiOjYwMS4zMjQyMTg3NSwieSI6NjQ1Ljg2NzE4NzV9LHsieCI6NjAxLjMyNDIxODc1LCJ5Ijo3MDcuMzY3MTg3NX0seyJ4Ijo2MDEuMzI0MjE4NzUsInkiOjc2OC44NjcxODc1fSx7IngiOjYwMS4zMjQyMTg3NSwieSI6ODMwLjM2NzE4NzV9LHsieCI6NjAxLjMyNDIxODc1LCJ5Ijo4OTEuODY3MTg3NX0seyJ4Ijo2MDEuMzI0MjE4NzUsInkiOjk1My4zNjcxODc1fSx7IngiOjYwMS4zMjQyMTg3NSwieSI6MTAyNS40NTcwMzEyNX0seyJ4Ijo1MDIuMDYzNjUyNTA3Nzg5MjQsInkiOjEwNTguNTQ2ODc1fV0="/><path id="L_V_EN_0" marker-end="url(#scopewatchBuild_flowchart-v2-pointEnd)" d="M277.153,992.367L273.028,997.882C268.903,1003.397,260.653,1014.427,266.091,1025.139C271.53,1035.85,290.658,1046.244,300.221,1051.44L309.785,1056.637" class="edge-thickness-normal edge-pattern-solid flowchart-link" data-edge="true" data-et="edge" data-id="L_V_EN_0" data-points="W3sieCI6Mjc3LjE1MjkzNzI1NDQ3MDMsInkiOjk5Mi4zNjcxODc1fSx7IngiOjI1Mi40MDIzNDM3NSwieSI6MTAyNS40NTcwMzEyNX0seyJ4IjozMTMuMjk5ODQ4NjYwNTkzMzQsInkiOjEwNTguNTQ2ODc1fV0="/><path id="L_EL_R_0" marker-end="url(#scopewatchBuild_flowchart-v2-pointEnd)" d="M954.25,500.367L954.25,504.117C954.25,507.867,954.25,515.367,954.25,529.367C954.25,543.367,954.25,563.867,954.25,584.367C954.25,604.867,954.25,625.367,954.25,645.867C954.25,666.367,954.25,686.867,954.25,707.367C954.25,727.867,954.25,748.367,954.25,768.867C954.25,789.367,954.25,809.867,954.25,830.367C954.25,850.867,954.25,871.367,954.25,891.867C954.25,912.367,954.25,932.867,954.25,955.132C954.25,977.397,954.25,1001.427,954.25,1025.457C954.25,1049.487,954.25,1073.517,954.25,1098.999C954.25,1124.48,954.25,1151.414,935.37,1171.623C916.491,1191.832,878.731,1205.317,859.852,1212.059L840.972,1218.802" class="edge-thickness-normal edge-pattern-solid flowchart-link" data-edge="true" data-et="edge" data-id="L_EL_R_0" data-points="W3sieCI6OTU0LjI1LCJ5Ijo1MDAuMzY3MTg3NX0seyJ4Ijo5NTQuMjUsInkiOjUyMi44NjcxODc1fSx7IngiOjk1NC4yNSwieSI6NTg0LjM2NzE4NzV9LHsieCI6OTU0LjI1LCJ5Ijo2NDUuODY3MTg3NX0seyJ4Ijo5NTQuMjUsInkiOjcwNy4zNjcxODc1fSx7IngiOjk1NC4yNSwieSI6NzY4Ljg2NzE4NzV9LHsieCI6OTU0LjI1LCJ5Ijo4MzAuMzY3MTg3NX0seyJ4Ijo5NTQuMjUsInkiOjg5MS44NjcxODc1fSx7IngiOjk1NC4yNSwieSI6OTUzLjM2NzE4NzV9LHsieCI6OTU0LjI1LCJ5IjoxMDI1LjQ1NzAzMTI1fSx7IngiOjk1NC4yNSwieSI6MTA5Ny41NDY4NzV9LHsieCI6OTU0LjI1LCJ5IjoxMTc4LjM0Njg3NDIzNzA2MDV9LHsieCI6ODM3LjIwNDgyNzc2MzgyMDIsInkiOjEyMjAuMTQ2ODczNDc0MTIxfV0="/><path id="L_EN_R_0" marker-end="url(#scopewatchBuild_flowchart-v2-pointEnd)" d="M385.074,1136.547L385.074,1143.514C385.074,1150.48,385.074,1164.414,419.913,1179.589C454.752,1194.764,524.429,1211.182,559.268,1219.39L594.107,1227.599" class="edge-thickness-normal edge-pattern-dotted edge-pattern-solid flowchart-link" data-edge="true" data-et="edge" data-id="L_EN_R_0" data-points="W3sieCI6Mzg1LjA3NDIxODc1LCJ5IjoxMTM2LjU0Njg3NX0seyJ4IjozODUuMDc0MjE4NzUsInkiOjExNzguMzQ2ODc0MjM3MDYwNX0seyJ4Ijo1OTgsInkiOjEyMjguNTE2MzM5MTg2MTE5NX1d"/><path id="L_R_S_0" marker-end="url(#scopewatchBuild_flowchart-v2-pointEnd)" d="M650.574,1298.147L639.594,1303.677C628.614,1309.208,606.655,1320.269,595.675,1330.664C584.695,1341.058,584.695,1350.786,584.695,1355.65L584.695,1360.514" class="edge-thickness-normal edge-pattern-solid flowchart-link" data-edge="true" data-et="edge" data-id="L_R_S_0" data-points="W3sieCI6NjUwLjU3NDA1NzAzNzcxODUsInkiOjEyOTguMTQ2ODczNDc0MTIxfSx7IngiOjU4NC42OTUzMTI1LCJ5IjoxMzMxLjMzMDQ2NzIyNDEyMX0seyJ4Ijo1ODQuNjk1MzEyNSwieSI6MTM2NC41MTQwNjA5NzQxMjF9XQ=="/><path id="L_C_L_0" marker-end="url(#scopewatchBuild_flowchart-v2-pointEnd)" d="M1049.882,233L1050.539,238.531C1051.196,244.061,1052.51,255.122,1053.167,265.517C1053.824,275.911,1053.824,285.639,1053.824,290.503L1053.824,295.367" class="edge-thickness-normal edge-pattern-solid flowchart-link" data-edge="true" data-et="edge" data-id="L_C_L_0" data-points="W3sieCI6MTA0OS44ODI0MDYzMDUxMDE4LCJ5IjoyMzN9LHsieCI6MTA1My44MjQyMTg3NSwieSI6MjY2LjE4MzU5Mzc1fSx7IngiOjEwNTMuODI0MjE4NzUsInkiOjI5OS4zNjcxODc1fV0="/><path id="L_L_EL_0" marker-end="url(#scopewatchBuild_flowchart-v2-pointEnd)" d="M1053.824,377.367L1053.824,381.117C1053.824,384.867,1053.824,392.367,1048.32,399.517C1042.815,406.667,1031.807,413.466,1026.302,416.866L1020.798,420.265" class="edge-thickness-normal edge-pattern-solid flowchart-link" data-edge="true" data-et="edge" data-id="L_L_EL_0" data-points="W3sieCI6MTA1My44MjQyMTg3NSwieSI6Mzc3LjM2NzE4NzV9LHsieCI6MTA1My44MjQyMTg3NSwieSI6Mzk5Ljg2NzE4NzV9LHsieCI6MTAxNy4zOTQ2MjY1MjQzOTAyLCJ5Ijo0MjIuMzY3MTg3NX1d"/><path id="L_N_OC_0" marker-end="url(#scopewatchBuild_flowchart-v2-pointEnd)" d="M268.316,209L279.168,218.531C290.02,228.061,311.723,247.122,308.226,261.953C304.73,276.783,276.034,287.382,261.686,292.682L247.339,297.981" class="edge-thickness-normal edge-pattern-dotted edge-pattern-solid flowchart-link" data-edge="true" data-et="edge" data-id="L_N_OC_0" data-points="W3sieCI6MjY4LjMxNjQ1ODA4OTI0MTgsInkiOjIwOX0seyJ4IjozMzMuNDI1NzgxMjUsInkiOjI2Ni4xODM1OTM3NX0seyJ4IjoyNDMuNTg2Mzk1MzY3NzE0NzIsInkiOjI5OS4zNjcxODc1fV0="/><path id="L_C_OS_0" marker-end="url(#scopewatchBuild_flowchart-v2-pointEnd)" d="M1173.824,217.882L1202.991,225.932C1232.158,233.982,1290.491,250.083,1319.658,262.997C1348.824,275.911,1348.824,285.639,1348.824,290.503L1348.824,295.367" class="edge-thickness-normal edge-pattern-dotted edge-pattern-solid flowchart-link" data-edge="true" data-et="edge" data-id="L_C_OS_0" data-points="W3sieCI6MTE3My44MjQyMTg3NSwieSI6MjE3Ljg4MTUzMTc2MjI5NTA4fSx7IngiOjEzNDguODI0MjE4NzUsInkiOjI2Ni4xODM1OTM3NX0seyJ4IjoxMzQ4LjgyNDIxODc1LCJ5IjoyOTkuMzY3MTg3NX1d"/><path id="L_V_OO_0" marker-end="url(#scopewatchBuild_flowchart-v2-pointEnd)" d="M386.12,992.367L397.404,997.882C408.688,1003.397,431.256,1014.427,459.214,1025.255C487.171,1036.082,520.517,1046.707,537.19,1052.02L553.864,1057.333" class="edge-thickness-normal edge-pattern-dotted edge-pattern-solid flowchart-link" data-edge="true" data-et="edge" data-id="L_V_OO_0" data-points="W3sieCI6Mzg2LjEyMDQ3OTkyNTgzMzE0LCJ5Ijo5OTIuMzY3MTg3NX0seyJ4Ijo0NTMuODI0MjE4NzUsInkiOjEwMjUuNDU3MDMxMjV9LHsieCI6NTU3LjY3NDg2ODk4MDI5LCJ5IjoxMDU4LjU0Njg3NX1d"/><path id="L_R_OM_0" marker-end="url(#scopewatchBuild_flowchart-v2-pointEnd)" d="M805.426,1298.147L816.406,1303.677C827.386,1309.208,849.345,1320.269,860.325,1332.664C871.305,1345.058,871.305,1358.786,871.305,1365.65L871.305,1372.514" class="edge-thickness-normal edge-pattern-dotted edge-pattern-solid flowchart-link" data-edge="true" data-et="edge" data-id="L_R_OM_0" data-points="W3sieCI6ODA1LjQyNTk0Mjk2MjI4MTUsInkiOjEyOTguMTQ2ODczNDc0MTIxfSx7IngiOjg3MS4zMDQ2ODc1LCJ5IjoxMzMxLjMzMDQ2NzIyNDEyMX0seyJ4Ijo4NzEuMzA0Njg3NSwieSI6MTM3Ni41MTQwNjA5NzQxMjF9XQ=="/></g><g class="edgeLabels"><g><rect class="background" style="stroke:none"/></g><g><rect class="background" style="stroke:none"/></g><g><rect class="background" style="stroke:none"/></g><g><rect class="background" style="stroke:none"/></g><g><rect class="background" style="stroke:none"/></g><g><rect class="background" style="stroke:none"/></g><g><rect class="background" style="stroke:none"/></g><g><rect class="background" style="stroke:none"/></g><g><rect class="background" style="stroke:none"/></g><g><rect class="background" style="stroke:none"/></g><g><rect class="background" style="stroke:none"/></g><g><rect class="background" style="stroke:none"/></g><g><rect class="background" style="stroke:none"/></g><g><rect class="background" style="stroke:none"/></g><g><rect class="background" style="stroke:none"/></g><g><rect class="background" style="stroke:none"/></g><g><rect class="background" style="stroke:none"/></g><g class="edgeLabel"><g class="label" data-id="L_EN_R_0"><g transform="translate(385.07421875, 1178.3468742370605) translate(-78.953125, -19.299999237060547)"><rect width="157.906" height="38.6" x="-2" y="0" class="background"/><text y="-10.1"><tspan x="0" y="-.1em" class="text-outer-tspan" dy="1.1em"><tspan class="text-inner-tspan" font-style="normal" font-weight="normal">native</tspan><tspan class="text-inner-tspan" font-style="normal" font-weight="normal"> evidence</tspan><tspan class="text-inner-tspan" font-style="normal" font-weight="normal"> when</tspan></tspan><tspan x="0" y="1em" class="text-outer-tspan" dy="1.1em"><tspan class="text-inner-tspan" font-style="normal" font-weight="normal">available</tspan></tspan></text></g></g></g><g class="edgeLabel"><g class="label" data-id="L_N_OC_0"><g transform="translate(329.14995, 267.76294) translate(-75.8515625, -10.5)"><rect width="151.703" height="21" x="-2" y="0" class="background"/><text y="-10.1"><tspan x="0" y="-.1em" class="text-outer-tspan" dy="1.1em"><tspan class="text-inner-tspan" font-style="normal" font-weight="normal">bounded</tspan><tspan class="text-inner-tspan" font-style="normal" font-weight="normal"> before</tspan><tspan class="text-inner-tspan" font-style="normal" font-weight="normal"> 1:30</tspan></tspan></text></g></g></g><g class="edgeLabel"><g class="label" data-id="L_C_OS_0"><g transform="translate(1348.82421875, 266.18359375) translate(-101.609375, -10.68359375)"><rect width="203.219" height="21.367" x="-2" y="0" class="background"/><text y="-10.1"><tspan x="0" y="-.1em" class="text-outer-tspan" dy="1.1em"><tspan class="text-inner-tspan" font-style="normal" font-weight="normal">ordinary</tspan><tspan class="text-inner-tspan" font-style="normal" font-weight="normal"> event</tspan><tspan class="text-inner-tspan" font-style="normal" font-weight="normal"> source</tspan><tspan class="text-inner-tspan" font-style="normal" font-weight="normal"> exists</tspan></tspan></text></g></g></g><g class="edgeLabel"><g class="label" data-id="L_V_OO_0"><g transform="translate(453.82421875, 1025.45703125) translate(-87.84375, -10.58984375)"><rect width="175.688" height="21.18" x="-2" y="0" class="background"/><text y="-10.1"><tspan x="0" y="-.1em" class="text-outer-tspan" dy="1.1em"><tspan class="text-inner-tspan" font-style="normal" font-weight="normal">G2</tspan><tspan class="text-inner-tspan" font-style="normal" font-weight="normal"> passed</tspan><tspan class="text-inner-tspan" font-style="normal" font-weight="normal"> /</tspan><tspan class="text-inner-tspan" font-style="normal" font-weight="normal"> before</tspan><tspan class="text-inner-tspan" font-style="normal" font-weight="normal"> 1:45</tspan></tspan></text></g></g></g><g class="edgeLabel"><g class="label" data-id="L_R_OM_0"><g transform="translate(871.3046875, 1331.330467224121) translate(-98.5078125, -10.68359375)"><rect width="197.016" height="21.367" x="-2" y="0" class="background"/><text y="-10.1"><tspan x="0" y="-.1em" class="text-outer-tspan" dy="1.1em"><tspan class="text-inner-tspan" font-style="normal" font-weight="normal">core</tspan><tspan class="text-inner-tspan" font-style="normal" font-weight="normal"> passes</tspan><tspan class="text-inner-tspan" font-style="normal" font-weight="normal"> /</tspan><tspan class="text-inner-tspan" font-style="normal" font-weight="normal"> spare</tspan><tspan class="text-inner-tspan" font-style="normal" font-weight="normal"> budget</tspan></tspan></text></g></g></g></g><g class="nodes"><g id="flowchart-H-0" class="node default" transform="translate(680.07421875, 47)"><rect width="260" height="78" x="-130" y="-39" class="basic label-container"/><g class="label" transform="translate(-100, -24)"><rect/><foreignObject width="200" height="48"><div xmlns="http://www.w3.org/1999/xhtml" style="display:table;white-space:break-spaces;line-height:1.5;max-width:200px;text-align:center;width:200px"><span class="nodeLabel"><p>T00 Harness / clock / account requirements</p></span></div></foreignObject></g></g><g id="flowchart-N-1" class="node default" transform="translate(237.57421875, 182)"><rect width="245.859" height="54" x="-122.93" y="-27" class="basic label-container"/><g class="label" transform="translate(-92.9296875, -12)"><rect/><foreignObject width="185.859" height="24"><div xmlns="http://www.w3.org/1999/xhtml" style="display:table-cell;white-space:nowrap;line-height:1.5;max-width:200px;text-align:center"><span class="nodeLabel"><p>T01 Native first-hour proof</p></span></div></foreignObject></g></g><g id="flowchart-C-3" class="node default" transform="translate(1043.82421875, 182)"><rect width="260" height="102" x="-130" y="-51" class="basic label-container"/><g class="label" transform="translate(-100, -36)"><rect/><foreignObject width="200" height="72"><div xmlns="http://www.w3.org/1999/xhtml" style="display:table;white-space:break-spaces;line-height:1.5;max-width:200px;text-align:center;width:200px"><span class="nodeLabel"><p>T02 Shared contracts / local skeleton / run commands</p></span></div></foreignObject></g></g><g id="flowchart-U-5" class="node default" transform="translate(758.82421875, 338.3671875)"><rect width="260" height="78" x="-130" y="-39" class="basic label-container"/><g class="label" transform="translate(-100, -24)"><rect/><foreignObject width="200" height="48"><div xmlns="http://www.w3.org/1999/xhtml" style="display:table;white-space:break-spaces;line-height:1.5;max-width:200px;text-align:center;width:200px"><span class="nodeLabel"><p>T03 Interface / actual API contract</p></span></div></foreignObject></g></g><g id="flowchart-J-7" class="node default" transform="translate(433, 338.3671875)"><rect width="260" height="78" x="-130" y="-39" class="basic label-container"/><g class="label" transform="translate(-100, -24)"><rect/><foreignObject width="200" height="48"><div xmlns="http://www.w3.org/1999/xhtml" style="display:table;white-space:break-spaces;line-height:1.5;max-width:200px;text-align:center;width:200px"><span class="nodeLabel"><p>T04 Native admission / event bindings / cohort</p></span></div></foreignObject></g></g><g id="flowchart-P-11" class="node default" transform="translate(433, 461.3671875)"><rect width="260" height="78" x="-130" y="-39" class="basic label-container"/><g class="label" transform="translate(-100, -24)"><rect/><foreignObject width="200" height="48"><div xmlns="http://www.w3.org/1999/xhtml" style="display:table;white-space:break-spaces;line-height:1.5;max-width:200px;text-align:center;width:200px"><span class="nodeLabel"><p>T05 Journal + analytical publication / readback</p></span></div></foreignObject></g></g><g id="flowchart-Q-13" class="node default" transform="translate(433, 584.3671875)"><rect width="260" height="78" x="-130" y="-39" class="basic label-container"/><g class="label" transform="translate(-100, -24)"><rect/><foreignObject width="200" height="48"><div xmlns="http://www.w3.org/1999/xhtml" style="display:table;white-space:break-spaces;line-height:1.5;max-width:200px;text-align:center;width:200px"><span class="nodeLabel"><p>T06 Historical all-candidate SQL / current count</p></span></div></foreignObject></g></g><g id="flowchart-I-15" class="node default" transform="translate(306.32421875, 707.3671875)"><rect width="260" height="78" x="-130" y="-39" class="basic label-container"/><g class="label" transform="translate(-100, -24)"><rect/><foreignObject width="200" height="48"><div xmlns="http://www.w3.org/1999/xhtml" style="display:table;white-space:break-spaces;line-height:1.5;max-width:200px;text-align:center;width:200px"><span class="nodeLabel"><p>T07 Hosted context read / actual incident</p></span></div></foreignObject></g></g><g id="flowchart-A-17" class="node default" transform="translate(306.32421875, 830.3671875)"><rect width="260" height="78" x="-130" y="-39" class="basic label-container"/><g class="label" transform="translate(-100, -24)"><rect/><foreignObject width="200" height="48"><div xmlns="http://www.w3.org/1999/xhtml" style="display:table;white-space:break-spaces;line-height:1.5;max-width:200px;text-align:center;width:200px"><span class="nodeLabel"><p>T08 Exact human review / native rule receipt</p></span></div></foreignObject></g></g><g id="flowchart-V-19" class="node default" transform="translate(306.32421875, 953.3671875)"><rect width="260" height="78" x="-130" y="-39" class="basic label-container"/><g class="label" transform="translate(-100, -24)"><rect/><foreignObject width="200" height="48"><div xmlns="http://www.w3.org/1999/xhtml" style="display:table;white-space:break-spaces;line-height:1.5;max-width:200px;text-align:center;width:200px"><span class="nodeLabel"><p>T09 Fresh target refusal / control result</p></span></div></foreignObject></g></g><g id="flowchart-EL-21" class="node default" transform="translate(954.25, 461.3671875)"><rect width="260" height="78" x="-130" y="-39" class="basic label-container"/><g class="label" transform="translate(-100, -24)"><rect/><foreignObject width="200" height="48"><div xmlns="http://www.w3.org/1999/xhtml" style="display:table;white-space:break-spaces;line-height:1.5;max-width:200px;text-align:center;width:200px"><span class="nodeLabel"><p>T10L Local browser / adversarial acceptance</p></span></div></foreignObject></g></g><g id="flowchart-EN-23" class="node default" transform="translate(385.07421875, 1097.546875)"><rect width="260" height="78" x="-130" y="-39" class="basic label-container"/><g class="label" transform="translate(-100, -24)"><rect/><foreignObject width="200" height="48"><div xmlns="http://www.w3.org/1999/xhtml" style="display:table;white-space:break-spaces;line-height:1.5;max-width:200px;text-align:center;width:200px"><span class="nodeLabel"><p>T10N Native analytical / effect acceptance</p></span></div></foreignObject></g></g><g id="flowchart-R-27" class="node default" transform="translate(728, 1259.146873474121)"><rect width="260" height="78" x="-130" y="-39" class="basic label-container"/><g class="label" transform="translate(-100, -24)"><rect/><foreignObject width="200" height="48"><div xmlns="http://www.w3.org/1999/xhtml" style="display:table;white-space:break-spaces;line-height:1.5;max-width:200px;text-align:center;width:200px"><span class="nodeLabel"><p>T11 Independent integrated review / repair</p></span></div></foreignObject></g></g><g id="flowchart-S-31" class="node default" transform="translate(584.6953125, 1403.514060974121)"><rect width="260" height="78" x="-130" y="-39" class="basic label-container"/><g class="label" transform="translate(-100, -24)"><rect/><foreignObject width="200" height="48"><div xmlns="http://www.w3.org/1999/xhtml" style="display:table;white-space:break-spaces;line-height:1.5;max-width:200px;text-align:center;width:200px"><span class="nodeLabel"><p>T12 Evidence / demo / startup / submission handoff</p></span></div></foreignObject></g></g><g id="flowchart-L-33" class="node default" transform="translate(1053.82421875, 338.3671875)"><rect width="260" height="78" x="-130" y="-39" class="basic label-container"/><g class="label" transform="translate(-100, -24)"><rect/><foreignObject width="200" height="48"><div xmlns="http://www.w3.org/1999/xhtml" style="display:table;white-space:break-spaces;line-height:1.5;max-width:200px;text-align:center;width:200px"><span class="nodeLabel"><p>Independent local/replay implementation lane</p></span></div></foreignObject></g></g><g id="flowchart-OC-37" class="node default" transform="translate(138, 338.3671875)"><rect width="260" height="78" x="-130" y="-39" class="basic label-container"/><g class="label" transform="translate(-100, -24)"><rect/><foreignObject width="200" height="48"><div xmlns="http://www.w3.org/1999/xhtml" style="display:table;white-space:break-spaces;line-height:1.5;max-width:200px;text-align:center;width:200px"><span class="nodeLabel"><p>Optional matched ticket-cause experiment</p></span></div></foreignObject></g></g><g id="flowchart-OS-39" class="node default" transform="translate(1348.82421875, 338.3671875)"><rect width="260" height="78" x="-130" y="-39" class="basic label-container"/><g class="label" transform="translate(-100, -24)"><rect/><foreignObject width="200" height="48"><div xmlns="http://www.w3.org/1999/xhtml" style="display:table;white-space:break-spaces;line-height:1.5;max-width:200px;text-align:center;width:200px"><span class="nodeLabel"><p>Optional same-codebase Semgrep discovery</p></span></div></foreignObject></g></g><g id="flowchart-OO-41" class="node default" transform="translate(680.07421875, 1097.546875)"><rect width="260" height="78" x="-130" y="-39" class="basic label-container"/><g class="label" transform="translate(-100, -24)"><rect/><foreignObject width="200" height="48"><div xmlns="http://www.w3.org/1999/xhtml" style="display:table;white-space:break-spaces;line-height:1.5;max-width:200px;text-align:center;width:200px"><span class="nodeLabel"><p>Optional exact native outcome match</p></span></div></foreignObject></g></g><g id="flowchart-OM-43" class="node default" transform="translate(871.3046875, 1403.514060974121)"><rect width="243.219" height="54" x="-121.609" y="-27" class="basic label-container"/><g class="label" transform="translate(-91.609375, -12)"><rect/><foreignObject width="183.219" height="24"><div xmlns="http://www.w3.org/1999/xhtml" style="display:table-cell;white-space:nowrap;line-height:1.5;max-width:200px;text-align:center"><span class="nodeLabel"><p>Optional measured replay</p></span></div></foreignObject></g></g></g></g></g></svg>